<?xml version="1.0" encoding="UTF-8" standalone="no"?>
<!-- Created with Inkscape (http://www.inkscape.org/) -->

<svg
   width="48"
   height="48"
   viewBox="0 0 48 48"
   version="1.1"
   id="svg5"
   xml:space="preserve"
   inkscape:export-filename="fav.svg"
   inkscape:export-xdpi="96"
   inkscape:export-ydpi="96"
   sodipodi:docname="favicon.svg"
   inkscape:version="1.2.2 (b0a8486541, 2022-12-01)"
   xmlns:inkscape="http://www.inkscape.org/namespaces/inkscape"
   xmlns:sodipodi="http://sodipodi.sourceforge.net/DTD/sodipodi-0.dtd"
   xmlns="http://www.w3.org/2000/svg"
   xmlns:svg="http://www.w3.org/2000/svg"><sodipodi:namedview
     id="namedview7"
     pagecolor="#ffffff"
     bordercolor="#000000"
     borderopacity="0.25"
     inkscape:showpageshadow="2"
     inkscape:pageopacity="0.0"
     inkscape:pagecheckerboard="0"
     inkscape:deskcolor="#d1d1d1"
     inkscape:document-units="px"
     showgrid="false"
     inkscape:zoom="17.479167"
     inkscape:cx="21.797378"
     inkscape:cy="24.028605"
     inkscape:window-width="1920"
     inkscape:window-height="1011"
     inkscape:window-x="0"
     inkscape:window-y="32"
     inkscape:window-maximized="1"
     inkscape:current-layer="layer1" /><defs
     id="defs2" /><g
     inkscape:label="Camada 1"
     inkscape:groupmode="layer"
     id="layer1"><rect
       style="fill:#ffffff;fill-opacity:1;stroke-width:1.4;stroke-linecap:round;stroke-linejoin:round"
       id="rect418"
       width="44.601814"
       height="47.799614"
       x="1.6269951"
       y="0.16424178"
       rx="3.7263103"
       ry="3.72631" /><g
       style="fill:none;stroke:currentColor;stroke-width:0.913686;stroke-linecap:round;stroke-linejoin:round"
       id="g254"
       transform="matrix(2.2023249,0,0,2.1756191,-2.6219013,-1.7580324)"><path
         d="M 16,8.2 A 2.22,2.22 0 0 0 13.8,6 C 13,6 12.4,6.3 12,6.9 11.6,6.3 11,6 10.2,6 A 2.22,2.22 0 0 0 8,8.2 C 8,8.8 8.3,9.4 8.7,9.8 A 226.652,226.652 0 0 0 12,13 404,404 0 0 0 15.3,9.9 2.413,2.413 0 0 0 16,8.2"
         id="path242"
         style="stroke-width:0.913686" /><path
         d="M 4,19.5 V 4.5 A 2.5,2.5 0 0 1 6.5,2 H 19 a 1,1 0 0 1 1,1 v 18 a 1,1 0 0 1 -1,1 H 6.5 a 2.5,2.5 0 0 1 0,-5 H 20"
         id="path244"
         style="stroke-width:0.913686" /></g></g></svg>
